<svg width="175" height="175" viewBox="0 0 175 175" fill="none" xmlns="http://www.w3.org/2000/svg">
<path fill-rule="evenodd" clip-rule="evenodd" d="M79.8717 0.123683C75.4335 0.475797 72.716 0.801035 72.716 0.979717C72.716 1.0805 72.3372 1.16281 71.8742 1.16281C71.4112 1.16281 71.0323 1.24364 71.0323 1.34233C71.0323 1.44122 70.3936 1.58148 69.6128 1.65434C68.832 1.72699 68.1612 1.88236 68.1221 1.99952C68.0829 2.11669 67.5852 2.21264 67.0161 2.21264C66.447 2.21264 65.9813 2.30713 65.9813 2.42261C65.9813 2.53809 65.5787 2.63551 65.0868 2.63929C64.595 2.64286 64.0084 2.78459 63.7838 2.95424C63.5591 3.12369 63.062 3.26247 62.6789 3.26247C62.2959 3.26247 61.9825 3.35696 61.9825 3.47244C61.9825 3.58792 61.8295 3.68241 61.6424 3.68241C61.1722 3.68241 59.1571 4.38181 59.0712 4.57476C59.0325 4.66148 58.6301 4.73224 58.1767 4.73224C57.7232 4.73224 57.3524 4.82253 57.3524 4.93276C57.3524 5.04299 57.0209 5.19522 56.6158 5.27101C56.2106 5.34681 55.8791 5.49295 55.8791 5.59541C55.8791 5.69809 55.595 5.78207 55.2478 5.78207C54.9005 5.78207 54.6164 5.87656 54.6164 5.99204C54.6164 6.10752 54.4337 6.20201 54.2104 6.20201C53.9873 6.20201 53.6626 6.34373 53.4889 6.51696C53.3153 6.69018 52.9771 6.83191 52.7372 6.83191C52.4975 6.83191 52.3013 6.92639 52.3013 7.04187C52.3013 7.15735 52.0883 7.25478 51.8278 7.25856C51.5672 7.26213 51.1703 7.40385 50.9457 7.57351C50.721 7.74295 50.3659 7.88174 50.1565 7.88174C49.9471 7.88174 49.7758 7.97622 49.7758 8.09171C49.7758 8.20719 49.6337 8.30167 49.4601 8.30167C49.2865 8.30167 49.1444 8.39196 49.1444 8.50219C49.1444 8.61242 48.8129 8.76465 48.4078 8.84045C48.0027 8.91624 47.6712 9.06238 47.6712 9.16484C47.6712 9.26752 47.5291 9.35151 47.3555 9.35151C47.1819 9.35151 47.0398 9.44599 47.0398 9.56147C47.0398 9.67695 46.8098 9.77144 46.5286 9.77144C46.2476 9.77144 45.8755 9.91317 45.7019 10.0864C45.5283 10.2596 45.2848 10.4013 45.1606 10.4013C45.0366 10.4013 44.9352 10.4958 44.9352 10.6113C44.9352 10.7268 44.7559 10.8213 44.5368 10.8213C44.3177 10.8213 44.0839 10.963 44.0172 11.1362C43.9506 11.3094 43.7038 11.4512 43.4685 11.4512C43.2334 11.4512 43.041 11.5457 43.041 11.6611C43.041 11.7766 42.899 11.8711 42.7253 11.8711C42.5517 11.8711 42.4097 11.9637 42.4097 12.0771C42.4097 12.1903 42.1729 12.3423 41.8835 12.4147C41.5941 12.4871 41.3573 12.6308 41.3573 12.7336C41.3573 12.8367 41.2024 12.9209 41.0132 12.9209C40.8238 12.9209 40.4496 13.1572 40.1813 13.4459C39.9132 13.7346 39.543 13.9708 39.3584 13.9708C39.174 13.9708 38.7864 14.207 38.497 14.4957C38.2076 14.7844 37.8332 15.0206 37.6648 15.0206C37.4964 15.0206 37.3586 15.0991 37.3586 15.1951C37.3586 15.291 37.1218 15.496 36.8324 15.6505C36.5431 15.805 36.3063 16.0572 36.3063 16.2109C36.3063 16.3646 36.1101 16.4904 35.8704 16.4904C35.4045 16.4904 34.8331 16.9447 34.8331 17.3153C34.8331 17.439 34.6472 17.5402 34.4201 17.5402C34.193 17.5402 33.5688 17.9654 33.033 18.4851C32.4969 19.0047 31.9872 19.4299 31.9001 19.4299C31.8129 19.4299 31.4665 19.6659 31.1302 19.9546C30.7937 20.2431 30.4475 20.4793 30.3608 20.4795C30.2741 20.4795 30.2029 20.6215 30.2029 20.7947C30.2029 20.9679 30.1048 21.1096 29.9849 21.1096C29.8651 21.1096 29.5341 21.3223 29.2495 21.5821C28.6573 22.1227 27.2735 23.4757 26.8983 23.881C26.7592 24.0311 26.5224 24.2696 26.3721 24.4107C25.763 24.9831 24.0909 26.6758 23.5208 27.2974C23.2605 27.5812 23.0473 27.871 23.0473 27.9411C23.0473 28.153 22.4615 28.6684 22.2204 28.6684C22.0964 28.6684 21.9949 28.7696 21.9949 28.8933C21.9949 29.1841 21.4595 29.7183 21.168 29.7183C21.0441 29.7183 20.9426 29.8375 20.9426 29.9835C20.9426 30.1292 20.7059 30.4259 20.4165 30.6427C20.1271 30.8594 19.8903 31.1717 19.8903 31.3365C19.8903 31.5013 19.5589 31.9481 19.1537 32.3292C18.7486 32.7105 18.4171 33.1294 18.4171 33.26C18.4171 33.3908 18.3224 33.4977 18.2067 33.4977C18.0909 33.4977 17.9962 33.6866 17.9962 33.9176C17.9962 34.1509 17.8558 34.3375 17.6805 34.3375C17.5069 34.3375 17.3648 34.4387 17.3648 34.5624C17.3648 34.6863 17.2463 34.9191 17.1017 35.0802C16.4771 35.775 16.3125 36.0124 16.3125 36.2184C16.3125 36.3387 16.2178 36.4372 16.102 36.4372C15.9863 36.4372 15.8916 36.5359 15.8916 36.6566C15.8916 36.7773 15.6548 37.1125 15.3654 37.4012C15.076 37.6899 14.8393 38.0231 14.8393 38.1415C14.8393 38.2599 14.7208 38.4886 14.5762 38.6496C13.9516 39.3444 13.787 39.5819 13.787 39.7878C13.787 39.9082 13.7026 40.0066 13.5992 40.0066C13.4961 40.0066 13.3522 40.2428 13.2796 40.5315C13.2069 40.8203 13.0546 41.0565 12.9411 41.0565C12.8275 41.0565 12.7347 41.2454 12.7347 41.4764C12.7347 41.7074 12.64 41.8963 12.5242 41.8963C12.4085 41.8963 12.3137 42.0381 12.3137 42.2113C12.3137 42.3845 12.2294 42.5262 12.126 42.5262C12.0229 42.5262 11.8789 42.7624 11.8063 43.0511C11.7337 43.3398 11.5813 43.5761 11.4679 43.5761C11.3543 43.5761 11.2614 43.7692 11.2614 44.0052C11.2614 44.2412 11.0247 44.6891 10.7353 45.0003C10.4459 45.3116 10.2091 45.6776 10.2091 45.8135C10.2091 45.9495 10.1382 46.0921 10.0513 46.1307C9.82252 46.2321 9.15684 47.5469 9.15684 47.8974C9.15684 48.0612 9.06213 48.1953 8.94638 48.1953C8.83062 48.1953 8.73591 48.4315 8.73591 48.7202C8.73591 49.0089 8.6431 49.2452 8.52945 49.2452C8.41601 49.2452 8.26364 49.4814 8.19103 49.7701C8.11842 50.0588 7.97447 50.295 7.87134 50.295C7.76801 50.295 7.68361 50.6257 7.68361 51.0299C7.68361 51.4341 7.5908 51.7648 7.47715 51.7648C7.36371 51.7648 7.21134 52.001 7.13873 52.2897C7.06612 52.5784 6.92216 52.8146 6.81904 52.8146C6.7157 52.8146 6.63131 53.0508 6.63131 53.3395C6.63131 53.6282 6.5366 53.8644 6.42085 53.8644C6.30509 53.8644 6.21039 54.0171 6.21039 54.2037C6.21039 54.6728 5.50934 56.6832 5.31593 56.7689C5.22922 56.8075 5.15808 57.0673 5.15808 57.3463C5.15808 57.6253 5.07558 57.8538 4.97456 57.8538C4.87354 57.8538 4.73042 58.2317 4.65634 58.6937C4.58226 59.1556 4.4282 59.5335 4.31371 59.5335C4.19943 59.5335 4.10578 59.8642 4.10578 60.2684C4.10578 60.6726 4.01107 61.0033 3.89532 61.0033C3.77956 61.0033 3.68485 61.3159 3.68485 61.6981C3.68485 62.0802 3.54574 62.5761 3.3759 62.8004C3.20585 63.0244 3.06378 63.5149 3.06021 63.8903C3.05642 64.2658 2.95876 64.5727 2.84301 64.5727C2.72726 64.5727 2.63255 65.0046 2.63255 65.5325C2.63255 66.1059 2.50543 66.6193 2.31686 66.8074C2.10724 67.0165 2.00117 67.5406 2.00117 68.367C2.00117 69.057 1.9073 69.6119 1.79071 69.6119C1.67495 69.6119 1.58025 70.0182 1.58025 70.5148C1.58025 71.0113 1.48407 71.5136 1.36663 71.6307C1.24919 71.7479 1.09282 72.7589 1.01937 73.8774C0.945707 74.9959 0.804908 75.9109 0.706623 75.9109C0.608338 75.9109 0.527942 76.8008 0.527942 77.8882C0.527942 79.2588 0.449019 79.8915 0.270759 79.9509C-0.0950224 80.0725 -0.0878666 94.4281 0.278125 94.5499C0.446073 94.6057 0.527942 95.2472 0.527942 96.5051C0.527942 97.535 0.608548 98.3773 0.706834 98.3773C0.805329 98.3773 0.946759 99.2327 1.02105 100.278C1.09534 101.323 1.25172 102.356 1.36831 102.574C1.48491 102.791 1.58025 103.448 1.58025 104.033C1.58025 104.618 1.67495 105.096 1.79071 105.096C1.90646 105.096 2.00117 105.481 2.00117 105.951C2.00117 106.431 2.13965 106.944 2.31686 107.121C2.51217 107.316 2.63255 107.831 2.63255 108.471C2.63255 109.04 2.72726 109.506 2.84301 109.506C2.95876 109.506 3.05347 109.836 3.05347 110.24C3.05347 110.645 3.13597 110.975 3.23699 110.975C3.33801 110.975 3.48113 111.353 3.55521 111.815C3.62929 112.277 3.78335 112.655 3.89784 112.655C4.01212 112.655 4.10578 112.915 4.10599 113.232C4.1062 113.806 4.72116 115.649 5.00802 115.935C5.09052 116.017 5.15808 116.352 5.15808 116.68C5.15808 117.007 5.25279 117.274 5.36854 117.274C5.48429 117.274 5.579 117.445 5.579 117.654C5.579 117.863 5.71812 118.217 5.88796 118.442C6.05801 118.666 6.20007 119.062 6.20365 119.322C6.20744 119.581 6.30509 119.794 6.42085 119.794C6.5366 119.794 6.63131 119.98 6.63131 120.207C6.63131 120.667 7.27995 122.17 7.52577 122.278C7.61269 122.317 7.68361 122.577 7.68361 122.856C7.68361 123.135 7.77832 123.363 7.89407 123.363C8.00983 123.363 8.10453 123.555 8.10453 123.79C8.10453 124.025 8.24659 124.271 8.42022 124.337C8.59385 124.404 8.73591 124.684 8.73591 124.961C8.73591 125.237 8.83062 125.463 8.94638 125.463C9.06213 125.463 9.15684 125.693 9.15684 125.973C9.15684 126.253 9.2989 126.625 9.47253 126.798C9.64616 126.971 9.78822 127.214 9.78822 127.338C9.78822 127.462 9.88293 127.563 9.99868 127.563C10.1144 127.563 10.2091 127.697 10.2091 127.861C10.2091 128.235 10.8919 129.449 11.1036 129.451C11.1905 129.452 11.2614 129.654 11.2614 129.901C11.2614 130.147 11.4982 130.568 11.7876 130.836C12.077 131.103 12.3137 131.516 12.3137 131.752C12.3137 131.989 12.4085 132.182 12.5242 132.182C12.64 132.182 12.7347 132.371 12.7347 132.602C12.7347 132.835 12.875 133.022 13.0504 133.022C13.228 133.022 13.3661 133.21 13.3661 133.451C13.3661 133.687 13.6028 134.135 13.8922 134.446C14.1816 134.757 14.4184 135.131 14.4184 135.277C14.4184 135.422 14.5131 135.541 14.6288 135.541C14.7446 135.541 14.8393 135.643 14.8393 135.766C14.8393 135.89 14.9576 136.123 15.1024 136.284C15.6849 136.932 15.8916 137.21 15.8916 137.346C15.8916 137.424 16.1284 137.707 16.4177 137.975C16.7071 138.242 16.9439 138.585 16.9439 138.736C16.9439 138.887 17.1807 139.189 17.47 139.405C17.7594 139.622 17.9962 139.93 17.9962 140.089C17.9962 140.248 18.3277 140.699 18.7328 141.092C19.1379 141.484 19.4694 141.875 19.4694 141.959C19.4694 142.044 19.8009 142.434 20.206 142.827C20.6112 143.219 20.9426 143.608 20.9426 143.69C20.9426 143.772 21.1794 144.094 21.4688 144.406C21.7582 144.717 21.9949 145.054 21.9949 145.155C21.9949 145.256 22.2317 145.465 22.5211 145.62C22.8105 145.774 23.0473 145.983 23.0473 146.085C23.0473 146.343 24.0341 147.3 24.3005 147.3C24.4216 147.3 24.5205 147.432 24.5205 147.593C24.5205 147.987 28.4468 151.919 28.8402 151.919C29.0109 151.919 29.1506 152.061 29.1506 152.234C29.1506 152.407 29.2327 152.549 29.3329 152.549C29.4331 152.549 30.2033 153.21 31.0448 154.019C31.8862 154.827 32.6611 155.488 32.7668 155.488C32.8726 155.488 33.1784 155.724 33.4465 156.013C33.7149 156.302 34.0011 156.538 34.083 156.538C34.1648 156.538 34.3637 156.656 34.5252 156.801C35.157 157.366 35.4518 157.588 35.5703 157.588C35.6383 157.588 35.9308 157.824 36.2202 158.113C36.5096 158.402 36.8632 158.638 37.0061 158.638C37.1488 158.638 37.4022 158.827 37.5691 159.058C37.7359 159.289 37.9935 159.478 38.1417 159.478C38.2897 159.478 38.4109 159.619 38.4109 159.793C38.4109 159.971 38.5997 160.108 38.8468 160.108C39.0867 160.108 39.4148 160.226 39.5762 160.37C40.2726 160.993 40.5107 161.157 40.7171 161.157C40.8377 161.157 40.9364 161.252 40.9364 161.367C40.9364 161.483 41.0743 161.577 41.2426 161.577C41.411 161.577 41.7854 161.814 42.0748 162.102C42.3642 162.391 42.7845 162.627 43.009 162.627C43.2334 162.627 43.4714 162.769 43.5381 162.942C43.6046 163.115 43.8515 163.257 44.0868 163.257C44.3219 163.257 44.5143 163.352 44.5143 163.467C44.5143 163.582 44.6563 163.677 44.83 163.677C45.0036 163.677 45.1463 163.748 45.1469 163.834C45.1488 164.046 46.3657 164.727 46.7411 164.727C46.9053 164.727 47.0398 164.821 47.0398 164.937C47.0398 165.052 47.2766 165.147 47.5659 165.147C47.8553 165.147 48.0921 165.239 48.0921 165.353C48.0921 165.466 48.3289 165.618 48.6182 165.69C48.9076 165.763 49.1444 165.906 49.1444 166.009C49.1444 166.112 49.3812 166.197 49.6706 166.197C49.9599 166.197 50.1967 166.289 50.1967 166.403C50.1967 166.516 50.4335 166.668 50.7229 166.74C51.0122 166.813 51.249 166.956 51.249 167.059C51.249 167.162 51.4858 167.246 51.7752 167.246C52.0645 167.246 52.3013 167.339 52.3013 167.452C52.3013 167.566 52.5381 167.718 52.8275 167.79C53.1168 167.862 53.3536 168.006 53.3536 168.109C53.3536 168.212 53.6445 168.296 53.9999 168.296C54.3556 168.296 54.7885 168.438 54.9622 168.611C55.1358 168.784 55.5079 168.926 55.7889 168.926C56.07 168.926 56.3001 169.021 56.3001 169.136C56.3001 169.252 56.5368 169.346 56.8262 169.346C57.1156 169.346 57.3524 169.441 57.3524 169.556C57.3524 169.672 57.571 169.766 57.8383 169.766C58.1056 169.766 58.508 169.905 58.7328 170.074C58.9573 170.244 59.4018 170.386 59.7201 170.389C60.0383 170.393 60.2988 170.49 60.2988 170.606C60.2988 170.721 60.6065 170.819 60.9828 170.823C61.3591 170.826 61.8508 170.968 62.0753 171.138C62.3001 171.307 62.7025 171.446 62.9698 171.446C63.2371 171.446 63.4557 171.54 63.4557 171.656C63.4557 171.771 63.9293 171.866 64.508 171.866C65.0868 171.866 65.5604 171.948 65.5604 172.049C65.5604 172.149 66.1286 172.295 66.8231 172.374C67.5176 172.452 68.0859 172.606 68.0859 172.716C68.0859 172.826 68.5121 172.915 69.033 172.915C69.5538 172.915 69.98 172.997 69.98 173.096C69.98 173.195 70.5527 173.335 71.2525 173.408C71.9523 173.481 72.7038 173.637 72.9223 173.753C73.1409 173.87 73.7443 173.965 74.2631 173.965C74.7819 173.965 75.238 174.048 75.2767 174.148C75.3152 174.249 76.6253 174.394 78.188 174.471C79.7507 174.548 81.4081 174.699 81.8711 174.808C83.0122 175.075 91.1335 175.059 92.1836 174.787C92.6467 174.667 94.2093 174.519 95.6562 174.457C97.1032 174.395 98.3186 174.259 98.3571 174.155C98.3958 174.051 98.9253 173.965 99.5338 173.965C100.142 173.965 101.105 173.825 101.674 173.653C102.242 173.481 103.204 173.339 103.812 173.338C104.419 173.336 104.917 173.241 104.917 173.125C104.917 173.01 105.242 172.915 105.641 172.915C106.039 172.915 106.423 172.821 106.495 172.706C106.567 172.59 106.899 172.496 107.233 172.496C107.584 172.496 107.941 172.34 108.075 172.128C108.242 171.865 108.34 171.835 108.419 172.023C108.55 172.335 109.126 172.378 109.126 172.076C109.126 171.96 109.552 171.866 110.073 171.866C110.594 171.866 111.02 171.783 111.02 171.683C111.02 171.582 111.399 171.439 111.862 171.365C112.325 171.291 112.704 171.137 112.704 171.023C112.704 170.909 113.13 170.816 113.651 170.816C114.172 170.816 114.598 170.721 114.598 170.606C114.598 170.49 114.816 170.396 115.084 170.396C115.351 170.396 115.753 170.257 115.978 170.088C116.203 169.918 116.6 169.776 116.86 169.773C117.121 169.769 117.334 169.672 117.334 169.556C117.334 169.441 117.665 169.346 118.07 169.346C118.475 169.346 118.807 169.253 118.807 169.14C118.807 169.027 119.044 168.875 119.333 168.802C119.622 168.73 119.859 168.586 119.859 168.484C119.859 168.38 120.191 168.296 120.596 168.296C121.001 168.296 121.332 168.212 121.332 168.11C121.332 168.007 121.664 167.861 122.069 167.785C122.474 167.709 122.806 167.557 122.806 167.447C122.806 167.337 123.042 167.246 123.332 167.246C123.621 167.246 123.858 167.162 123.858 167.059C123.858 166.956 124.095 166.813 124.384 166.74C124.674 166.668 124.91 166.516 124.91 166.403C124.91 166.289 125.147 166.197 125.436 166.197C125.726 166.197 125.963 166.102 125.963 165.987C125.963 165.871 126.199 165.777 126.489 165.777C126.778 165.777 127.015 165.684 127.015 165.571C127.015 165.457 127.252 165.305 127.541 165.233C127.83 165.161 128.067 165.017 128.067 164.914C128.067 164.811 128.257 164.727 128.488 164.727C128.72 164.727 128.909 164.643 128.909 164.54C128.909 164.437 129.146 164.293 129.435 164.221C129.725 164.148 129.961 163.996 129.961 163.883C129.961 163.77 130.198 163.677 130.488 163.677C130.777 163.677 131.014 163.582 131.014 163.467C131.014 163.352 131.115 163.257 131.239 163.257C131.363 163.257 131.597 163.139 131.758 162.995C132.507 162.324 132.708 162.207 133.109 162.207C133.351 162.207 133.539 162.069 133.539 161.892C133.539 161.719 133.681 161.577 133.855 161.577C134.029 161.577 134.171 161.483 134.171 161.367C134.171 161.252 134.35 161.157 134.569 161.157C134.788 161.157 135.022 161.016 135.089 160.842C135.155 160.669 135.402 160.527 135.637 160.527C135.872 160.527 136.065 160.433 136.065 160.317C136.065 160.202 136.164 160.108 136.284 160.108C136.405 160.108 136.759 159.871 137.071 159.583C137.383 159.294 137.758 159.058 137.904 159.058C138.05 159.058 138.169 158.984 138.169 158.893C138.169 158.802 138.477 158.547 138.853 158.326C139.23 158.105 139.721 157.754 139.945 157.546C140.17 157.338 140.43 157.168 140.524 157.168C140.618 157.168 140.695 157.026 140.695 156.853C140.695 156.657 140.894 156.538 141.221 156.538C141.51 156.538 141.747 156.437 141.747 156.313C141.747 156.061 142.268 155.488 142.496 155.488C142.578 155.488 142.957 155.158 143.339 154.753C143.721 154.349 144.12 154.019 144.226 154.019C144.331 154.019 145 153.452 145.712 152.759C146.424 152.066 147.102 151.499 147.218 151.499C147.334 151.499 147.43 151.398 147.43 151.274C147.43 150.983 147.965 150.449 148.257 150.449C148.38 150.449 148.482 150.348 148.482 150.224C148.482 149.95 149.011 149.399 149.273 149.399C149.378 149.399 149.59 149.163 149.745 148.874C149.9 148.586 150.112 148.349 150.216 148.349C150.426 148.349 151.007 147.82 151.007 147.628C151.007 147.561 151.67 146.846 152.481 146.04C153.291 145.233 153.954 144.501 153.954 144.412C153.954 144.323 154.191 143.996 154.48 143.685C154.769 143.373 155.006 143.054 155.006 142.976C155.006 142.898 155.243 142.615 155.532 142.347C155.822 142.079 156.059 141.714 156.059 141.536C156.059 141.357 156.16 141.211 156.284 141.211C156.526 141.211 157.111 140.695 157.111 140.482C157.111 140.41 157.348 140.098 157.637 139.786C157.926 139.475 158.163 139.101 158.163 138.955C158.163 138.81 158.258 138.691 158.374 138.691C158.489 138.691 158.584 138.553 158.584 138.385C158.584 138.217 158.821 137.844 159.11 137.555C159.4 137.267 159.636 136.931 159.636 136.811C159.636 136.69 159.729 136.591 159.843 136.591C159.956 136.591 160.109 136.355 160.181 136.066C160.254 135.778 160.398 135.541 160.501 135.541C160.604 135.541 160.689 135.395 160.689 135.216C160.689 135.038 160.925 134.673 161.215 134.405C161.504 134.137 161.741 133.811 161.741 133.68C161.741 133.549 161.836 133.442 161.951 133.442C162.067 133.442 162.162 133.264 162.162 133.047C162.162 132.831 162.304 132.536 162.478 132.392C162.651 132.248 162.793 132 162.793 131.841C162.793 131.682 162.888 131.552 163.004 131.552C163.119 131.552 163.214 131.316 163.214 131.027C163.214 130.7 163.334 130.502 163.53 130.502C163.726 130.502 163.846 130.304 163.846 129.977C163.846 129.689 163.94 129.452 164.056 129.452C164.172 129.452 164.266 129.311 164.266 129.137C164.266 128.964 164.361 128.823 164.477 128.823C164.593 128.823 164.687 128.631 164.687 128.396C164.687 128.161 164.829 127.915 165.003 127.849C165.177 127.782 165.319 127.549 165.319 127.33C165.319 127.112 165.413 126.933 165.529 126.933C165.645 126.933 165.74 126.707 165.74 126.43C165.74 126.154 165.882 125.874 166.055 125.807C166.229 125.741 166.371 125.494 166.371 125.26C166.371 125.025 166.466 124.833 166.582 124.833C166.697 124.833 166.792 124.637 166.792 124.398C166.792 124.159 166.934 123.822 167.108 123.648C167.281 123.475 167.423 123.104 167.423 122.824C167.423 122.543 167.518 122.314 167.634 122.314C167.75 122.314 167.844 122.077 167.844 121.789C167.844 121.5 167.929 121.264 168.032 121.264C168.135 121.264 168.279 121.027 168.352 120.739C168.424 120.45 168.577 120.214 168.69 120.214C168.804 120.214 168.897 119.891 168.897 119.496C168.897 119.102 168.968 118.748 169.054 118.709C169.3 118.6 169.949 117.098 169.949 116.637C169.949 116.41 170.044 116.225 170.159 116.225C170.275 116.225 170.37 115.904 170.37 115.512C170.37 115.072 170.491 114.753 170.686 114.679C170.884 114.603 171.001 114.282 171.001 113.816C171.001 113.409 171.096 113.075 171.212 113.075C171.327 113.075 171.422 112.705 171.422 112.253C171.422 111.8 171.52 111.398 171.64 111.358C171.898 111.272 172.456 109.064 172.467 108.088C172.471 107.713 172.563 107.406 172.672 107.406C172.781 107.406 172.928 106.957 172.999 106.409C173.069 105.86 173.217 105.247 173.327 105.047C173.437 104.846 173.527 104.303 173.527 103.839C173.527 103.376 173.61 102.997 173.711 102.997C173.886 102.997 174.262 100.434 174.504 97.59C174.565 96.8683 174.702 96.2777 174.807 96.2777C174.921 96.2777 175 92.4836 175 87.0391C175 81.6483 174.92 77.8006 174.809 77.8006C174.704 77.8006 174.565 77.3045 174.5 76.6983C174.014 72.171 173.859 71.0817 173.704 71.0817C173.607 71.0817 173.527 70.8692 173.528 70.6093C173.529 69.8668 172.815 66.5752 172.636 66.4975C172.547 66.4588 172.474 66.0102 172.474 65.5001C172.474 64.9901 172.392 64.5727 172.291 64.5727C172.191 64.5727 172.058 64.127 171.996 63.5823C171.935 63.0374 171.78 62.5573 171.653 62.5148C171.526 62.4726 171.422 62.0208 171.422 61.5108C171.422 61.0008 171.327 60.5834 171.212 60.5834C171.096 60.5834 171.001 60.3442 171.001 60.0519C171.001 59.7594 170.859 59.4659 170.686 59.3996C170.471 59.3175 170.37 58.9824 170.37 58.3562C170.37 57.849 170.275 57.4339 170.159 57.4339C170.044 57.4339 169.949 57.1976 169.949 56.9089C169.949 56.6202 169.858 56.384 169.748 56.384C169.637 56.384 169.485 56.0533 169.409 55.6491C169.333 55.245 169.186 54.9143 169.084 54.9143C168.981 54.9143 168.897 54.678 168.897 54.3893C168.897 54.1006 168.809 53.8644 168.703 53.8644C168.596 53.8644 168.447 53.581 168.37 53.2345C168.294 52.8881 168.145 52.6046 168.038 52.6046C167.931 52.6046 167.844 52.3212 167.844 51.9747C167.844 51.6283 167.75 51.3448 167.634 51.3448C167.518 51.3448 167.423 51.1187 167.423 50.8424C167.423 50.5661 167.281 50.2855 167.108 50.219C166.934 50.1526 166.792 49.9063 166.792 49.6716C166.792 49.4371 166.697 49.2452 166.582 49.2452C166.466 49.2452 166.371 49.0089 166.371 48.7202C166.371 48.4315 166.278 48.1953 166.165 48.1953C166.051 48.1953 165.899 47.9591 165.826 47.6704C165.754 47.3817 165.61 47.1455 165.507 47.1455C165.403 47.1455 165.319 46.9093 165.319 46.6206C165.319 46.3319 165.226 46.0957 165.112 46.0957C164.999 46.0957 164.847 45.8594 164.774 45.5707C164.701 45.282 164.557 45.0458 164.454 45.0458C164.351 45.0458 164.266 44.8569 164.266 44.6259C164.266 44.3949 164.182 44.206 164.079 44.206C163.976 44.206 163.832 43.9697 163.759 43.681C163.686 43.3923 163.534 43.1561 163.421 43.1561C163.307 43.1561 163.214 43.0144 163.214 42.8412C163.214 42.668 163.119 42.5262 163.004 42.5262C162.888 42.5262 162.793 42.3343 162.793 42.0998C162.793 41.865 162.651 41.6188 162.478 41.5524C162.304 41.4858 162.162 41.2526 162.162 41.034C162.162 40.8154 162.067 40.6365 161.951 40.6365C161.836 40.6365 161.741 40.4948 161.741 40.3216C161.741 40.1484 161.653 40.0066 161.545 40.0066C161.437 40.0066 161.283 39.8021 161.204 39.5521C161.124 39.302 160.834 38.8724 160.558 38.5975C160.283 38.3227 160.057 37.9605 160.057 37.7925C160.057 37.6246 159.963 37.487 159.847 37.487C159.731 37.487 159.636 37.3453 159.636 37.1721C159.636 36.9989 159.563 36.8571 159.474 36.8571C159.384 36.8571 159.133 36.5264 158.914 36.1222C158.696 35.7181 158.438 35.3874 158.341 35.3874C158.243 35.3874 158.163 35.2862 158.163 35.1625C158.163 35.0386 158.045 34.8058 157.9 34.6447C157.328 34.0089 157.111 33.7198 157.111 33.5966C157.111 33.3834 156.526 32.8678 156.284 32.8678C156.16 32.8678 156.059 32.6316 156.059 32.3428C156.059 32.0161 155.939 31.8179 155.743 31.8179C155.569 31.8179 155.427 31.7352 155.427 31.6342C155.427 31.5332 155.001 31.0068 154.48 30.4645C153.959 29.9221 153.533 29.3937 153.533 29.2904C153.533 29.187 152.728 28.2957 151.744 27.3097C150.76 26.3237 149.955 25.4633 149.955 25.398C149.955 25.1926 149.364 24.6791 149.128 24.6791C149.004 24.6791 148.903 24.5779 148.903 24.4542C148.903 24.2094 148.385 23.6292 148.166 23.6292C147.948 23.6292 147.43 23.0491 147.43 22.8043C147.43 22.6806 147.327 22.5794 147.202 22.5794C147.076 22.5794 146.652 22.2487 146.258 21.8445C145.865 21.4403 145.399 21.1096 145.224 21.1096C145.048 21.1096 144.904 20.9679 144.904 20.7947C144.904 20.6215 144.801 20.4797 144.675 20.4797C144.549 20.4797 144.032 20.0546 143.525 19.5349C143.019 19.0152 142.511 18.59 142.396 18.59C142.281 18.59 141.95 18.3538 141.661 18.0651C141.372 17.7764 141.071 17.5402 140.992 17.5402C140.913 17.5402 140.629 17.304 140.361 17.0153C140.093 16.7266 139.727 16.4904 139.547 16.4904C139.368 16.4904 139.222 16.4108 139.222 16.3134C139.222 16.2162 138.89 15.9585 138.485 15.7408C138.08 15.5231 137.748 15.2721 137.748 15.1829C137.748 15.0937 137.606 15.0206 137.433 15.0206C137.259 15.0206 137.117 14.928 137.117 14.8146C137.117 14.7015 136.88 14.5494 136.591 14.477C136.302 14.4046 136.065 14.2824 136.065 14.2057C136.065 14.1291 135.733 13.8883 135.328 13.6705C134.923 13.4528 134.592 13.1952 134.592 13.0979C134.592 13.0005 134.49 12.9209 134.366 12.9209C134.242 12.9209 134.009 12.8029 133.847 12.6585C133.098 11.9883 132.897 11.8711 132.496 11.8711C132.259 11.8711 132.066 11.7869 132.066 11.6838C132.066 11.5809 131.829 11.4373 131.54 11.3649C131.25 11.2924 131.014 11.1404 131.014 11.0272C131.014 10.9139 130.872 10.8213 130.698 10.8213C130.524 10.8213 130.382 10.7268 130.382 10.6113C130.382 10.4958 130.193 10.4013 129.961 10.4013C129.73 10.4013 129.54 10.3087 129.54 10.1954C129.54 10.0822 129.304 9.93017 129.014 9.85773C128.725 9.7853 128.488 9.64168 128.488 9.5388C128.488 9.4357 128.251 9.35151 127.962 9.35151C127.673 9.35151 127.436 9.26731 127.436 9.16421C127.436 9.06133 127.199 8.91771 126.91 8.84528C126.62 8.77284 126.384 8.62082 126.384 8.50765C126.384 8.39427 126.147 8.30167 125.857 8.30167C125.568 8.30167 125.331 8.20719 125.331 8.09171C125.331 7.97622 125.165 7.8788 124.963 7.87502C124.76 7.87145 124.411 7.72972 124.186 7.56007C123.961 7.39063 123.559 7.25184 123.292 7.25184C123.024 7.25184 122.806 7.15735 122.806 7.04187C122.806 6.92639 122.671 6.83191 122.507 6.83191C122.156 6.83191 120.838 6.16778 120.736 5.93955C120.698 5.85304 120.342 5.78207 119.947 5.78207C119.552 5.78207 119.228 5.68948 119.228 5.5761C119.228 5.46292 118.991 5.31091 118.702 5.23847C118.412 5.16603 118.176 5.02241 118.176 4.91953C118.176 4.81644 117.844 4.73224 117.439 4.73224C117.034 4.73224 116.702 4.64846 116.702 4.54621C116.702 4.44375 116.278 4.29656 115.76 4.21908C115.242 4.1416 114.763 3.98896 114.695 3.8802C114.628 3.77143 114.247 3.68241 113.849 3.68241C113.45 3.68241 113.124 3.58792 113.124 3.47244C113.124 3.35696 112.906 3.26247 112.639 3.26247C112.371 3.26247 111.969 3.12369 111.744 2.95424C111.52 2.78459 110.933 2.64286 110.441 2.63929C109.949 2.63551 109.547 2.53809 109.547 2.42261C109.547 2.30713 109.187 2.21264 108.747 2.21264C108.307 2.21264 107.848 2.11396 107.727 1.99323C107.606 1.87249 106.83 1.71712 106.001 1.64783C105.173 1.57854 104.496 1.44101 104.496 1.34233C104.496 1.24364 104.117 1.16281 103.654 1.16281C103.191 1.16281 102.812 1.07966 102.812 0.978037C102.812 0.876413 101.699 0.724187 100.339 0.639991C98.979 0.555584 97.8082 0.39475 97.7375 0.282208C97.5712 0.0176498 82.8537 -0.112949 79.8717 0.123683ZM95.9719 4.9758C96.6665 5.10829 97.799 5.23784 98.4888 5.26346C99.1897 5.2897 99.7777 5.41442 99.8217 5.54628C99.8726 5.69851 100.603 5.78207 101.882 5.78207C102.972 5.78207 103.864 5.86774 103.864 5.9723C103.864 6.07708 104.338 6.22762 104.917 6.30699C105.495 6.38636 105.969 6.5369 105.969 6.64168C105.969 6.74624 106.442 6.83191 107.021 6.83191C107.6 6.83191 108.073 6.92639 108.073 7.04187C108.073 7.15735 108.397 7.25184 108.793 7.25184C109.188 7.25184 109.548 7.3606 109.592 7.49351C109.637 7.62642 110.213 7.77991 110.873 7.8345C111.532 7.88909 112.072 8.01654 112.072 8.11774C112.072 8.21895 112.309 8.30167 112.598 8.30167C112.888 8.30167 113.124 8.39301 113.124 8.5045C113.124 8.61599 113.598 8.7699 114.177 8.84633C114.756 8.92296 115.229 9.06805 115.229 9.16862C115.229 9.2692 115.466 9.35151 115.755 9.35151C116.045 9.35151 116.281 9.44599 116.281 9.56147C116.281 9.67695 116.511 9.77144 116.793 9.77144C117.074 9.77144 117.446 9.91317 117.619 10.0864C117.793 10.2596 118.131 10.4013 118.371 10.4013C118.611 10.4013 118.807 10.4958 118.807 10.6113C118.807 10.7268 119.037 10.8213 119.318 10.8213C119.599 10.8213 119.971 10.963 120.145 11.1362C120.318 11.3094 120.657 11.4512 120.897 11.4512C121.136 11.4512 121.332 11.5457 121.332 11.6611C121.332 11.7766 121.529 11.8711 121.768 11.8711C122.008 11.8711 122.346 12.0128 122.52 12.1861C122.694 12.3593 123.066 12.501 123.347 12.501C123.628 12.501 123.858 12.5955 123.858 12.711C123.858 12.8265 124.037 12.9209 124.256 12.9209C124.475 12.9209 124.709 13.0627 124.776 13.2359C124.843 13.4091 125.089 13.5508 125.325 13.5508C125.56 13.5508 125.752 13.6453 125.752 13.7608C125.752 13.8763 125.894 13.9708 126.068 13.9708C126.241 13.9708 126.384 14.055 126.384 14.1581C126.384 14.2609 126.62 14.4046 126.91 14.477C127.199 14.5494 127.436 14.7015 127.436 14.8146C127.436 14.928 127.673 15.0206 127.962 15.0206C128.251 15.0206 128.488 15.0937 128.488 15.1829C128.488 15.2721 128.82 15.5231 129.225 15.7408C129.63 15.9585 129.961 16.2162 129.961 16.3134C129.961 16.4108 130.155 16.4904 130.391 16.4904C130.792 16.4904 130.993 16.6075 131.742 17.2777C131.904 17.4222 132.137 17.5402 132.261 17.5402C132.385 17.5402 132.487 17.6244 132.487 17.7275C132.487 17.8304 132.724 17.974 133.013 18.0464C133.302 18.1189 133.539 18.2709 133.539 18.3841C133.539 18.4974 133.638 18.59 133.758 18.59C133.965 18.59 134.203 18.7542 134.899 19.3774C135.061 19.5219 135.294 19.6399 135.418 19.6399C135.542 19.6399 135.644 19.7194 135.644 19.8169C135.644 19.9141 135.975 20.1717 136.38 20.3895C136.786 20.6072 137.117 20.8581 137.117 20.9473C137.117 21.0366 137.216 21.1096 137.336 21.1096C137.543 21.1096 137.781 21.2738 138.477 21.897C138.639 22.0413 138.823 22.1595 138.888 22.1595C138.953 22.1595 139.482 22.6319 140.063 23.2093C140.645 23.7867 141.223 24.2591 141.348 24.2591C141.472 24.2591 141.988 24.6843 142.495 25.204C143.001 25.7237 143.513 26.1488 143.634 26.1488C143.753 26.1488 143.852 26.2906 143.852 26.4638C143.852 26.637 143.951 26.7787 144.072 26.7787C144.358 26.7787 145.325 27.7439 145.325 28.0291C145.325 28.1498 145.426 28.2485 145.55 28.2485C145.842 28.2485 146.377 28.7827 146.377 29.0735C146.377 29.1971 146.476 29.2983 146.597 29.2983C146.883 29.2983 147.851 30.2635 147.851 30.5487C147.851 30.6694 147.993 30.7681 148.166 30.7681C148.34 30.7681 148.482 30.871 148.482 30.9968C148.482 31.1225 148.908 31.6386 149.429 32.1438C149.95 32.6488 150.376 33.1453 150.376 33.2472C150.376 33.3488 150.85 33.9249 151.428 34.5271C152.007 35.1293 152.481 35.6677 152.481 35.7235C152.481 35.822 152.726 36.1399 153.27 36.7444C153.415 36.9054 153.533 37.1383 153.533 37.2622C153.533 37.3858 153.613 37.487 153.71 37.487C153.808 37.487 154.066 37.8177 154.284 38.2219C154.503 38.6261 154.754 38.9568 154.844 38.9568C154.933 38.9568 155.006 39.058 155.006 39.1817C155.006 39.4725 155.542 40.0066 155.833 40.0066C155.957 40.0066 156.059 40.1996 156.059 40.4354C156.059 40.8356 156.176 41.0363 156.848 41.7836C156.993 41.9446 157.111 42.1775 157.111 42.3014C157.111 42.425 157.195 42.5262 157.299 42.5262C157.402 42.5262 157.546 42.7624 157.618 43.0511C157.691 43.3398 157.843 43.5761 157.957 43.5761C158.07 43.5761 158.163 43.7178 158.163 43.891C158.163 44.0642 158.258 44.206 158.374 44.206C158.489 44.206 158.584 44.3849 158.584 44.6034C158.584 44.822 158.726 45.0553 158.9 45.1218C159.073 45.1882 159.215 45.4345 159.215 45.6692C159.215 45.9037 159.31 46.0957 159.426 46.0957C159.542 46.0957 159.636 46.2374 159.636 46.4106C159.636 46.5838 159.721 46.7256 159.823 46.7256C159.926 46.7256 160.073 47.0563 160.149 47.4604C160.225 47.8646 160.377 48.1953 160.488 48.1953C160.598 48.1953 160.689 48.3371 160.689 48.5103C160.689 48.6835 160.783 48.8252 160.899 48.8252C161.015 48.8252 161.11 49.0041 161.11 49.2227C161.11 49.4413 161.252 49.6745 161.425 49.7411C161.599 49.8074 161.741 50.0537 161.741 50.2885C161.741 50.523 161.836 50.7149 161.951 50.7149C162.067 50.7149 162.162 50.9106 162.162 51.1498C162.162 51.3891 162.304 51.7265 162.478 51.8998C162.651 52.073 162.793 52.4442 162.793 52.7245C162.793 53.005 162.888 53.2345 163.004 53.2345C163.119 53.2345 163.214 53.4707 163.214 53.7594C163.214 54.0481 163.299 54.2844 163.402 54.2844C163.505 54.2844 163.649 54.5206 163.722 54.8093C163.794 55.098 163.947 55.3342 164.06 55.3342C164.174 55.3342 164.266 55.6649 164.266 56.0691C164.266 56.4733 164.361 56.804 164.477 56.804C164.593 56.804 164.687 57.0221 164.687 57.2888C164.687 57.5554 164.827 57.9569 164.996 58.1811C165.166 58.4052 165.308 58.8012 165.312 59.0611C165.316 59.321 165.403 59.5335 165.505 59.5335C165.608 59.5335 165.756 59.9587 165.834 60.4784C165.912 60.998 166.065 61.4232 166.173 61.4232C166.282 61.4232 166.371 61.6594 166.371 61.9481C166.371 62.2368 166.466 62.4731 166.582 62.4731C166.697 62.4731 166.792 62.905 166.792 63.4328C166.792 64.0062 166.919 64.5196 167.108 64.7077C167.281 64.881 167.423 65.2522 167.423 65.5325C167.423 65.813 167.518 66.0425 167.634 66.0425C167.754 66.0425 167.844 66.6724 167.844 67.5123C167.844 68.3206 167.927 68.982 168.028 68.982C168.129 68.982 168.272 69.36 168.346 69.8219C168.42 70.2838 168.574 70.6618 168.689 70.6618C168.809 70.6618 168.897 71.4109 168.897 72.4465C168.897 73.4281 168.982 74.2312 169.088 74.2312C169.193 74.2312 169.329 74.7273 169.391 75.3335C169.453 75.9397 169.599 77.0972 169.715 77.9056C169.832 78.714 169.932 80.6272 169.938 82.1574C169.945 83.8649 170.03 84.9395 170.159 84.9395C170.275 84.9395 170.37 85.0812 170.37 85.2544C170.37 85.4277 170.275 85.5694 170.159 85.5694C170.025 85.5694 169.944 87.4498 169.936 90.7661C169.93 93.6243 169.831 96.4352 169.718 97.0126C169.606 97.59 169.458 98.5585 169.389 99.1647C169.321 99.7709 169.182 100.267 169.081 100.267C168.98 100.267 168.897 101.07 168.897 102.052C168.897 103.087 168.809 103.836 168.689 103.836C168.574 103.836 168.42 104.214 168.346 104.676C168.272 105.138 168.129 105.516 168.028 105.516C167.927 105.516 167.844 105.989 167.844 106.566C167.844 107.143 167.762 107.616 167.662 107.616C167.561 107.616 167.425 108.015 167.359 108.504C167.294 108.992 167.139 109.425 167.016 109.466C166.893 109.507 166.792 110.005 166.792 110.573C166.792 111.141 166.697 111.605 166.582 111.605C166.466 111.605 166.368 111.771 166.364 111.973C166.361 112.175 166.219 112.524 166.049 112.748C165.879 112.972 165.74 113.468 165.74 113.85C165.74 114.232 165.645 114.545 165.529 114.545C165.413 114.545 165.316 114.757 165.312 115.017C165.308 115.277 165.166 115.673 164.996 115.897C164.827 116.121 164.687 116.523 164.687 116.79C164.687 117.056 164.593 117.274 164.477 117.274C164.361 117.274 164.266 117.558 164.266 117.904C164.266 118.251 164.179 118.534 164.073 118.534C163.966 118.534 163.817 118.818 163.74 119.164C163.664 119.51 163.515 119.794 163.408 119.794C163.301 119.794 163.214 120.03 163.214 120.319C163.214 120.608 163.119 120.844 163.004 120.844C162.888 120.844 162.793 121.015 162.793 121.224C162.793 121.433 162.654 121.787 162.484 122.011C162.314 122.235 162.172 122.631 162.169 122.891C162.165 123.151 162.067 123.363 161.951 123.363C161.836 123.363 161.741 123.6 161.741 123.888C161.741 124.215 161.622 124.413 161.425 124.413C161.25 124.413 161.11 124.6 161.11 124.833C161.11 125.064 161.015 125.253 160.899 125.253C160.783 125.253 160.689 125.479 160.689 125.756C160.689 126.032 160.547 126.312 160.373 126.379C160.199 126.445 160.057 126.692 160.057 126.926C160.057 127.161 159.963 127.353 159.847 127.353C159.731 127.353 159.636 127.494 159.636 127.668C159.636 127.841 159.542 127.983 159.426 127.983C159.31 127.983 159.215 128.175 159.215 128.409C159.215 128.644 159.073 128.89 158.9 128.956C158.726 129.023 158.584 129.256 158.584 129.475C158.584 129.693 158.5 129.872 158.396 129.872C158.293 129.872 158.149 130.109 158.077 130.397C158.004 130.686 157.852 130.922 157.738 130.922C157.625 130.922 157.532 131.064 157.532 131.237C157.532 131.41 157.437 131.552 157.321 131.552C157.206 131.552 157.111 131.698 157.111 131.877C157.111 132.056 156.874 132.421 156.585 132.688C156.295 132.956 156.059 133.336 156.059 133.533C156.059 133.934 155.577 134.492 155.232 134.492C155.108 134.492 155.006 134.693 155.006 134.939C155.006 135.185 154.675 135.699 154.27 136.08C153.864 136.461 153.533 136.968 153.533 137.207C153.533 137.446 153.432 137.641 153.308 137.641C153.066 137.641 152.481 138.157 152.481 138.37C152.481 138.493 152.263 138.782 151.691 139.418C151.547 139.579 151.428 139.771 151.428 139.845C151.428 139.919 151.097 140.291 150.692 140.672C150.287 141.053 149.955 141.432 149.955 141.513C149.955 141.741 149.381 142.26 149.128 142.26C149.004 142.26 148.903 142.443 148.903 142.666C148.903 142.889 148.713 143.132 148.482 143.205C148.25 143.279 148.061 143.419 148.061 143.518C148.061 143.616 147.682 144.079 147.219 144.545C146.756 145.012 146.377 145.492 146.377 145.612C146.377 145.732 146.276 145.83 146.153 145.83C146.029 145.83 145.365 146.397 144.677 147.09C143.989 147.782 143.285 148.349 143.113 148.349C142.94 148.349 142.799 148.451 142.799 148.574C142.799 148.818 142.282 149.399 142.064 149.399C141.99 149.399 141.617 149.73 141.235 150.134C140.852 150.538 140.473 150.869 140.392 150.869C140.163 150.869 139.643 151.442 139.643 151.694C139.643 151.818 139.453 151.919 139.222 151.919C138.99 151.919 138.801 152.013 138.801 152.129C138.801 152.244 138.659 152.339 138.485 152.339C138.311 152.339 138.169 152.48 138.169 152.654C138.169 152.827 138.071 152.969 137.95 152.969C137.744 152.969 137.506 153.133 136.809 153.756C136.648 153.9 136.414 154.019 136.29 154.019C136.166 154.019 136.065 154.098 136.065 154.196C136.065 154.293 135.733 154.55 135.328 154.768C134.923 154.986 134.592 155.237 134.592 155.326C134.592 155.415 134.493 155.488 134.372 155.488C134.166 155.488 133.928 155.652 133.231 156.276C133.07 156.42 132.836 156.538 132.712 156.538C132.588 156.538 132.487 156.633 132.487 156.748C132.487 156.864 132.356 156.958 132.197 156.958C132.038 156.958 131.789 157.1 131.645 157.273C131.501 157.446 131.205 157.588 130.988 157.588C130.771 157.588 130.593 157.682 130.593 157.798C130.593 157.913 130.451 158.008 130.277 158.008C130.103 158.008 129.961 158.1 129.961 158.214C129.961 158.327 129.725 158.479 129.435 158.551C129.146 158.624 128.909 158.75 128.909 158.831C128.909 158.913 128.578 159.109 128.172 159.268C127.767 159.426 127.436 159.68 127.436 159.832C127.436 159.986 127.204 160.108 126.91 160.108C126.62 160.108 126.384 160.192 126.384 160.295C126.384 160.398 126.147 160.541 125.857 160.614C125.568 160.686 125.331 160.838 125.331 160.951C125.331 161.065 125.094 161.157 124.805 161.157C124.516 161.157 124.279 161.252 124.279 161.367C124.279 161.483 124.144 161.577 123.98 161.577C123.629 161.577 122.311 162.241 122.209 162.47C122.171 162.556 121.873 162.627 121.548 162.627C121.217 162.627 120.903 162.766 120.835 162.942C120.769 163.115 120.522 163.257 120.287 163.257C120.052 163.257 119.859 163.352 119.859 163.467C119.859 163.582 119.622 163.677 119.333 163.677C119.044 163.677 118.807 163.771 118.807 163.887C118.807 164.002 118.53 164.097 118.19 164.097C117.852 164.097 117.432 164.239 117.259 164.412C117.085 164.585 116.747 164.727 116.507 164.727C116.267 164.727 116.071 164.821 116.071 164.937C116.071 165.052 115.739 165.147 115.334 165.147C114.929 165.147 114.598 165.231 114.598 165.333C114.598 165.436 114.266 165.582 113.861 165.658C113.456 165.734 113.124 165.886 113.124 165.996C113.124 166.106 112.651 166.197 112.072 166.197C111.493 166.197 111.02 166.291 111.02 166.407C111.02 166.522 110.79 166.616 110.509 166.616C110.228 166.616 109.856 166.758 109.682 166.931C109.471 167.142 108.944 167.246 108.088 167.246C107.386 167.246 106.811 167.335 106.811 167.444C106.811 167.552 106.384 167.704 105.864 167.782C105.343 167.86 104.917 168.008 104.917 168.11C104.917 168.212 104.348 168.296 103.654 168.296C102.952 168.296 102.391 168.389 102.391 168.506C102.391 168.629 101.687 168.716 100.701 168.716C99.6739 168.716 98.7134 168.84 98.2546 169.031C97.7061 169.26 96.6985 169.346 94.5783 169.346C92.7715 169.346 91.6575 169.426 91.6575 169.556C91.6575 169.69 89.7985 169.766 86.5012 169.766C83.2039 169.766 81.3449 169.69 81.3449 169.556C81.3449 169.244 79.2969 169.293 79.1685 169.609C79.0926 169.796 79.012 169.804 78.888 169.64C78.7924 169.513 77.9584 169.353 77.0347 169.285C76.111 169.217 75.3217 169.061 75.2809 168.939C75.2397 168.815 74.651 168.716 73.9613 168.716C73.2714 168.716 72.716 168.623 72.716 168.506C72.716 168.388 72.0977 168.293 71.2954 168.29C70.3814 168.285 69.7292 168.173 69.4663 167.975C69.2415 167.805 68.8391 167.666 68.5718 167.666C68.3045 167.666 68.0859 167.572 68.0859 167.456C68.0859 167.335 67.4194 167.246 66.5074 167.246C65.6159 167.246 64.929 167.157 64.929 167.04C64.929 166.927 64.6922 166.775 64.4028 166.703C64.1134 166.63 63.8767 166.487 63.8767 166.384C63.8767 166.281 63.4505 166.197 62.9296 166.197C62.4087 166.197 61.9825 166.113 61.9825 166.01C61.9825 165.908 61.722 165.771 61.4037 165.705C60.0387 165.423 58.8256 165.039 58.8256 164.889C58.8256 164.8 58.6294 164.727 58.3897 164.727C58.1498 164.727 57.8116 164.585 57.638 164.412C57.4643 164.239 57.0922 164.097 56.8113 164.097C56.5301 164.097 56.3001 164.002 56.3001 163.887C56.3001 163.771 56.0633 163.677 55.7739 163.677C55.4845 163.677 55.2471 163.606 55.2465 163.519C55.2444 163.279 54.0033 162.627 53.547 162.627C53.325 162.627 53.1432 162.533 53.1432 162.417C53.1432 162.302 52.9131 162.207 52.6319 162.207C52.351 162.207 51.9789 162.065 51.8053 161.892C51.6316 161.719 51.2934 161.577 51.0535 161.577C50.8138 161.577 50.6176 161.483 50.6176 161.367C50.6176 161.252 50.4383 161.157 50.2192 161.157C50.0001 161.157 49.7663 161.016 49.6996 160.842C49.6331 160.669 49.3862 160.527 49.1509 160.527C48.9158 160.527 48.7235 160.433 48.7235 160.317C48.7235 160.202 48.5814 160.108 48.4078 160.108C48.2342 160.108 48.0921 160.015 48.0921 159.902C48.0921 159.788 47.8553 159.636 47.5659 159.564C47.2766 159.491 47.0398 159.348 47.0398 159.245C47.0398 159.142 46.8504 159.058 46.6189 159.058C46.3874 159.058 46.1979 158.973 46.1979 158.87C46.1979 158.768 45.9612 158.624 45.6718 158.551C45.3824 158.479 45.1456 158.327 45.1456 158.214C45.1456 158.1 45.0036 158.008 44.83 158.008C44.6563 158.008 44.5143 157.913 44.5143 157.798C44.5143 157.682 44.3764 157.588 44.208 157.588C44.0397 157.588 43.6653 157.352 43.3759 157.063C43.0865 156.774 42.6559 156.538 42.4191 156.538C42.1769 156.538 41.9887 156.4 41.9887 156.223C41.9887 156.05 41.8467 155.908 41.673 155.908C41.4994 155.908 41.3573 155.814 41.3573 155.698C41.3573 155.583 41.2024 155.488 41.0132 155.488C40.8238 155.488 40.4496 155.252 40.1813 154.963C39.9132 154.675 39.5901 154.438 39.4632 154.438C39.3363 154.438 39.0132 154.202 38.7451 153.914C38.4768 153.625 38.1933 153.389 38.1148 153.389C37.959 153.389 37.6111 153.118 36.8318 152.391C36.5534 152.131 36.261 151.919 36.1821 151.919C36.1034 151.919 35.8195 151.683 35.5512 151.394C35.283 151.105 34.9726 150.869 34.8615 150.869C34.7503 150.869 34.0821 150.302 33.3769 149.609C32.6714 148.916 32.0003 148.349 31.8851 148.349C31.7702 148.349 31.6761 148.248 31.6761 148.125C31.6761 147.88 31.158 147.3 30.9395 147.3C30.7211 147.3 30.2029 146.719 30.2029 146.475C30.2029 146.351 30.1015 146.25 29.9775 146.25C29.7321 146.25 29.1506 145.733 29.1506 145.515C29.1506 145.34 28.5895 144.78 28.414 144.78C28.2374 144.78 27.6774 144.22 27.6774 144.043C27.6774 143.968 26.9671 143.198 26.0989 142.332C25.2308 141.465 24.5205 140.643 24.5205 140.505C24.5205 140.367 24.3311 140.117 24.0996 139.951C23.8681 139.784 23.6786 139.527 23.6786 139.379C23.6786 139.232 23.5366 139.111 23.3629 139.111C23.1893 139.111 23.0473 138.965 23.0473 138.786C23.0473 138.607 22.8105 138.242 22.5211 137.975C22.2317 137.707 21.9949 137.424 21.9949 137.345C21.9949 137.266 21.7582 136.966 21.4688 136.677C21.1794 136.388 20.9426 136.05 20.9426 135.924C20.9426 135.798 20.7667 135.543 20.5518 135.356C20.3369 135.169 20.0936 134.804 20.0116 134.544C19.9293 134.284 19.7737 134.072 19.6658 134.072C19.5578 134.072 19.4694 133.973 19.4694 133.852C19.4694 133.732 19.2327 133.396 18.9433 133.108C18.6539 132.819 18.4171 132.445 18.4171 132.278C18.4171 132.11 18.3224 131.972 18.2067 131.972C18.0909 131.972 17.9962 131.853 17.9962 131.707C17.9962 131.562 17.7594 131.188 17.47 130.877C17.1807 130.565 16.9439 130.128 16.9439 129.904C16.9439 129.68 16.8018 129.443 16.6282 129.376C16.4546 129.31 16.3125 129.111 16.3125 128.934C16.3125 128.757 16.2178 128.613 16.102 128.613C15.9863 128.613 15.8916 128.424 15.8916 128.193C15.8916 127.962 15.8204 127.772 15.7337 127.771C15.522 127.77 14.8393 126.556 14.8393 126.181C14.8393 126.017 14.7446 125.883 14.6288 125.883C14.5131 125.883 14.4184 125.647 14.4184 125.358C14.4184 125.031 14.299 124.833 14.1027 124.833C13.9063 124.833 13.787 124.635 13.787 124.308C13.787 124.02 13.6923 123.783 13.5765 123.783C13.4608 123.783 13.3661 123.547 13.3661 123.258C13.3661 122.97 13.2732 122.733 13.1596 122.733C13.0462 122.733 12.8938 122.497 12.8212 122.209C12.7486 121.92 12.6046 121.684 12.5015 121.684C12.3981 121.684 12.3137 121.447 12.3137 121.159C12.3137 120.87 12.219 120.634 12.1033 120.634C11.9875 120.634 11.8928 120.463 11.8928 120.254C11.8928 120.045 11.7537 119.691 11.5839 119.467C11.4138 119.243 11.2718 118.846 11.2682 118.587C11.2644 118.327 11.1667 118.114 11.051 118.114C10.9352 118.114 10.8405 117.885 10.8405 117.604C10.8405 117.324 10.6985 116.953 10.5248 116.779C10.3512 116.606 10.2091 116.269 10.2091 116.029C10.2091 115.79 10.1144 115.595 9.99868 115.595C9.88293 115.595 9.78822 115.272 9.78822 114.877C9.78822 114.483 9.68741 114.126 9.56408 114.085C9.44096 114.044 9.28648 113.611 9.22082 113.123C9.15515 112.635 9.0192 112.235 8.91859 112.235C8.81821 112.235 8.73591 111.952 8.73591 111.605C8.73591 111.259 8.64121 110.975 8.52545 110.975C8.4097 110.975 8.31436 110.668 8.31373 110.293C8.31289 109.918 8.17083 109.34 7.99804 109.009C7.82504 108.678 7.68361 108.182 7.68361 107.907C7.68361 107.631 7.60195 107.406 7.50198 107.406C7.40201 107.406 7.27027 106.783 7.20902 106.022C7.14778 105.26 6.99267 104.533 6.8645 104.405C6.73612 104.277 6.63131 103.908 6.63131 103.585C6.63131 103.261 6.5366 102.997 6.42085 102.997C6.30025 102.997 6.20912 102.347 6.20723 101.474C6.20554 100.637 6.06748 99.5742 5.9008 99.1122C5.7339 98.6503 5.59331 97.9182 5.58826 97.485C5.58321 97.052 5.48429 96.6976 5.36854 96.6976C5.23132 96.6976 5.15808 93.2682 5.15808 86.8292C5.15808 80.3901 5.23132 76.9608 5.36854 76.9608C5.48429 76.9608 5.579 76.6271 5.579 76.2191C5.579 75.8112 5.72106 75.1382 5.89469 74.7238C6.08474 74.2702 6.21039 73.3111 6.21039 72.3159C6.21039 71.4061 6.29436 70.6618 6.39706 70.6618C6.49956 70.6618 6.63383 70.402 6.69529 70.0843C6.75674 69.7669 6.90743 69.129 7.02992 68.6671C7.15241 68.2051 7.2549 67.5202 7.25764 67.1448C7.26037 66.7694 7.3574 66.4624 7.47315 66.4624C7.5889 66.4624 7.68361 66.1317 7.68361 65.7275C7.68361 65.3234 7.76948 64.9927 7.87429 64.9927C7.97931 64.9927 8.13021 64.5202 8.20976 63.9428C8.28932 63.3654 8.44022 62.893 8.54524 62.893C8.65005 62.893 8.73591 62.5623 8.73591 62.1581C8.73591 61.7539 8.83062 61.4232 8.94638 61.4232C9.06213 61.4232 9.15684 61.0992 9.15684 60.7033C9.15684 60.3075 9.2989 59.8418 9.47253 59.6685C9.64616 59.4953 9.78822 59.1579 9.78822 58.9185C9.78822 58.6794 9.88293 58.4837 9.99868 58.4837C10.1144 58.4837 10.2091 58.2655 10.2091 57.9989C10.2091 57.7322 10.3483 57.3308 10.5181 57.1065C10.6881 56.8825 10.8302 56.5335 10.8338 56.3315C10.8376 56.1295 10.9352 55.9641 11.051 55.9641C11.1667 55.9641 11.2614 55.6874 11.2614 55.3491C11.2614 55.0111 11.4035 54.5926 11.5771 54.4194C11.7508 54.2461 11.8928 53.956 11.8928 53.7744C11.8928 53.5929 11.9875 53.4445 12.1033 53.4445C12.219 53.4445 12.3137 53.161 12.3137 52.8146C12.3137 52.4681 12.3847 52.1841 12.4716 52.1834C12.6781 52.1815 13.3661 50.9717 13.3661 50.6104C13.3661 50.4562 13.4372 50.2986 13.5239 50.2599C13.7527 50.1585 14.4184 48.8437 14.4184 48.4933C14.4184 48.3295 14.5131 48.1953 14.6288 48.1953C14.7446 48.1953 14.8393 48.0651 14.8393 47.906C14.8393 47.747 14.9813 47.4993 15.155 47.3555C15.3286 47.2116 15.4707 46.9166 15.4707 46.6999C15.4707 46.483 15.5654 46.3056 15.6811 46.3056C15.7969 46.3056 15.8916 46.1599 15.8916 45.9819C15.8916 45.6789 16.0261 45.4668 16.6808 44.7386C16.8254 44.5776 16.9439 44.2727 16.9439 44.0609C16.9439 43.849 17.1807 43.4984 17.47 43.2815C17.7594 43.0648 17.9962 42.7116 17.9962 42.4968C17.9962 42.282 18.0909 42.1063 18.2067 42.1063C18.3224 42.1063 18.4171 41.8701 18.4171 41.5814C18.4171 41.2547 18.5364 41.0565 18.7328 41.0565C18.9064 41.0565 19.0485 40.9355 19.0485 40.7879C19.0485 40.6401 19.2379 40.3831 19.4694 40.2166C19.7009 40.0501 19.8903 39.7973 19.8903 39.6549C19.8903 39.5124 20.1157 39.171 20.3912 38.8961C20.6667 38.6213 20.9574 38.1917 21.0369 37.9416C21.1165 37.6915 21.2697 37.487 21.3777 37.487C21.4856 37.487 21.574 37.3858 21.574 37.2622C21.574 36.9714 22.1094 36.4372 22.4009 36.4372C22.5249 36.4372 22.6263 36.2955 22.6263 36.1222C22.6263 35.949 22.721 35.8073 22.8368 35.8073C22.9525 35.8073 23.0473 35.6183 23.0473 35.3874C23.0473 35.1541 23.1876 34.9674 23.3629 34.9674C23.5366 34.9674 23.6786 34.8645 23.6786 34.7388C23.6786 34.613 24.1048 34.0969 24.6257 33.5917C25.1466 33.0868 25.5728 32.616 25.5728 32.5457C25.5728 32.3334 26.1585 31.8179 26.3997 31.8179C26.5236 31.8179 26.6251 31.6718 26.6251 31.4929C26.6251 31.3142 26.8619 30.9491 27.1512 30.6816C27.4406 30.4139 27.6774 30.1283 27.6774 30.0467C27.6774 29.8178 28.2515 29.2983 28.5043 29.2983C28.6283 29.2983 28.7297 29.1971 28.7297 29.0735C28.7297 28.8286 29.2478 28.2485 29.4663 28.2485C29.6418 28.2485 30.2029 27.6887 30.2029 27.5136C30.2029 27.2957 30.7844 26.7787 31.0298 26.7787C31.1538 26.7787 31.2552 26.6775 31.2552 26.5539C31.2552 26.3082 31.7736 25.7289 31.9933 25.7289C32.0684 25.7289 32.4967 25.3747 32.9446 24.9415C33.9582 23.9618 34.3581 23.6292 34.5226 23.6292C34.5931 23.6292 34.9635 23.2985 35.3455 22.8944C35.7277 22.4902 36.107 22.1595 36.1884 22.1595C36.2697 22.1595 36.4683 22.0415 36.6298 21.897C37.2609 21.3324 37.5562 21.1096 37.6743 21.1096C37.7924 21.1096 38.0876 20.8869 38.7188 20.3223C38.8802 20.178 39.0911 20.0598 39.1877 20.0598C39.2843 20.0598 39.5411 19.8236 39.7585 19.5349C39.9757 19.2462 40.3297 19.01 40.545 19.01C40.7603 19.01 40.9364 18.9155 40.9364 18.8C40.9364 18.6845 41.0351 18.59 41.1557 18.59C41.3622 18.59 41.6002 18.4258 42.2966 17.8027C42.4581 17.6584 42.6915 17.5402 42.8156 17.5402C42.9396 17.5402 43.041 17.4476 43.041 17.3342C43.041 17.2211 43.2778 17.069 43.5672 16.9966C43.8566 16.9242 44.0933 16.7805 44.0933 16.6777C44.0933 16.5746 44.2354 16.4904 44.409 16.4904C44.5827 16.4904 44.7247 16.3959 44.7247 16.2804C44.7247 16.1649 44.9141 16.0704 45.1456 16.0704C45.3771 16.0704 45.5666 15.9778 45.5666 15.8645C45.5666 15.7513 45.8033 15.5993 46.0927 15.5268C46.3821 15.4544 46.6189 15.3108 46.6189 15.2079C46.6189 15.1048 46.7534 15.0206 46.9175 15.0206C47.293 15.0206 48.5099 14.3395 48.5118 14.1282C48.5124 14.0417 48.7498 13.9708 49.0392 13.9708C49.3286 13.9708 49.5653 13.8866 49.5653 13.7835C49.5653 13.6806 49.8021 13.537 50.0915 13.4645C50.3809 13.3921 50.6176 13.2401 50.6176 13.1269C50.6176 13.0135 50.8544 12.9209 51.1438 12.9209C51.4332 12.9209 51.6699 12.8367 51.6699 12.7336C51.6699 12.6308 51.9067 12.4871 52.1961 12.4147C52.4855 12.3423 52.7222 12.1903 52.7222 12.0771C52.7222 11.9637 52.959 11.8711 53.2484 11.8711C53.5378 11.8711 53.7745 11.7766 53.7745 11.6611C53.7745 11.5457 54.0046 11.4512 54.2857 11.4512C54.5667 11.4512 54.9388 11.3094 55.1124 11.1362C55.2861 10.963 55.6243 10.8213 55.8642 10.8213C56.1039 10.8213 56.3001 10.7268 56.3001 10.6113C56.3001 10.4958 56.6315 10.4013 57.0367 10.4013C57.4418 10.4013 57.7733 10.3079 57.7733 10.1939C57.7733 10.0797 58.1521 9.92597 58.6151 9.85207C59.0782 9.77816 59.457 9.63538 59.457 9.5346C59.457 9.43381 59.6938 9.35151 59.9831 9.35151C60.2725 9.35151 60.5093 9.25702 60.5093 9.14154C60.5093 9.02606 60.817 8.93094 61.1933 8.93031C61.5696 8.92947 62.1486 8.78774 62.48 8.61536C62.8117 8.44277 63.3088 8.30167 63.585 8.30167C63.8611 8.30167 64.0871 8.20719 64.0871 8.09171C64.0871 7.97622 64.5133 7.88174 65.0342 7.88174C65.5551 7.88174 65.9813 7.7883 65.9813 7.67429C65.9813 7.56007 66.3601 7.40637 66.8231 7.33247C67.2861 7.25856 67.665 7.12376 67.665 7.03305C67.665 6.94214 68.257 6.82162 68.9803 6.76514C70.4479 6.65091 72.2951 6.1934 72.2951 5.94438C72.2951 5.85514 73.2895 5.78207 74.5049 5.78207C75.8378 5.78207 76.7148 5.69872 76.7148 5.57211C76.7148 5.45662 77.1645 5.35311 77.7145 5.34198C78.2644 5.33085 79.1877 5.20047 79.7665 5.05202C81.1717 4.69172 94.1632 4.63041 95.9719 4.9758ZM88.0797 33.0777C88.0797 33.1945 87.4958 33.2911 86.7643 33.295C86.0232 33.2992 85.2191 33.4336 84.9227 33.6026C84.5873 33.7939 83.7671 33.9054 82.6603 33.9102C81.648 33.9144 80.924 34.0052 80.924 34.1276C80.924 34.243 80.4505 34.3375 79.8717 34.3375C79.2929 34.3375 78.8194 34.432 78.8194 34.5475C78.8194 34.663 78.6918 34.7575 78.5359 34.7575C77.4101 34.7575 77.3462 35.1169 77.3462 41.4485C77.3462 48.4471 77.4287 48.1953 75.1363 48.1953C74.3839 48.1953 73.7683 48.2785 73.7683 48.3801C73.7683 48.5802 71.3055 48.824 70.8745 48.6665C70.7299 48.6136 70.6114 48.3914 70.6114 48.1729C70.6114 47.9543 70.5167 47.7754 70.401 47.7754C70.2658 47.7754 70.1905 45.7456 70.1905 42.1063V36.4372H68.612C67.7439 36.4372 67.0336 36.5199 67.0336 36.6211C67.0336 36.7223 66.4937 36.8498 65.8339 36.9044C65.1744 36.959 64.5981 37.1124 64.5537 37.2454C64.5026 37.3986 63.9023 37.487 62.9121 37.487C62.0118 37.487 61.3511 37.5758 61.3511 37.697C61.3511 37.8125 60.943 37.907 60.4443 37.907C59.9455 37.907 59.3537 38.0458 59.1289 38.2152C58.9043 38.3848 58.4531 38.5266 58.1267 38.5301C56.9104 38.5438 56.8946 38.6248 56.8588 45.0584C56.8237 51.3866 56.8334 51.3341 55.7213 51.3417C55.4608 51.3434 55.2478 51.4393 55.2478 51.5548C55.2478 51.6703 54.7742 51.7648 54.1955 51.7648C53.6167 51.7648 53.1432 51.8592 53.1432 51.9747C53.1432 52.3455 50.8908 52.2309 50.7454 51.8525C50.6751 51.6699 50.6176 49.0816 50.6176 46.1009C50.6176 41.7246 50.5625 40.6603 50.3314 40.5719C49.8922 40.4037 46.6189 40.6724 46.6189 40.8765C46.6189 40.9754 46.24 41.0565 45.777 41.0565C45.314 41.0565 44.9352 41.1509 44.9352 41.2664C44.9352 41.3819 44.7458 41.4764 44.5143 41.4764C44.2828 41.4764 44.0933 41.6101 44.0933 41.7739C44.0933 41.9375 43.9854 42.1071 43.8536 42.151C43.6333 42.2243 43.5607 43.3825 43.6131 45.9907C43.6223 46.4526 43.6118 52.2634 43.5893 58.9036C43.5571 68.4806 43.6051 71.0624 43.821 71.391C43.9708 71.6186 44.0933 71.973 44.0933 72.1783C44.0933 72.3835 44.188 72.5515 44.3038 72.5515C44.4196 72.5515 44.5143 72.6999 44.5143 72.8813C44.5143 73.0629 44.6327 73.343 44.7773 73.5041C45.4376 74.2383 45.5666 74.4464 45.5666 74.7756C45.5666 74.9694 45.8033 75.3467 46.0927 75.6144C46.3821 75.8819 46.6189 76.2471 46.6189 76.4258C46.6189 76.6046 46.7136 76.7508 46.8293 76.7508C46.9451 76.7508 47.0398 76.8925 47.0398 77.0657C47.0398 77.239 47.1326 77.3807 47.2463 77.3807C47.3597 77.3807 47.5121 77.6169 47.5847 77.9056C47.6573 78.1943 47.8012 78.4305 47.9044 78.4305C48.0077 78.4305 48.0921 78.6195 48.0921 78.8504C48.0921 79.0814 48.1765 79.2704 48.2798 79.2704C48.3829 79.2704 48.5269 79.5066 48.5995 79.7953C48.6721 80.084 48.8245 80.3202 48.9379 80.3202C49.0516 80.3202 49.1444 80.4619 49.1444 80.6352C49.1444 80.8084 49.2391 80.9501 49.3549 80.9501C49.4942 80.9501 49.5653 92.2029 49.5653 114.288C49.5653 151.04 49.475 148.349 50.7077 148.349C50.8704 148.349 51.035 148.42 51.0737 148.507C51.1753 148.735 52.4933 149.399 52.8445 149.399C53.0087 149.399 53.1432 149.494 53.1432 149.609C53.1432 149.725 53.3799 149.819 53.6693 149.819C53.9968 149.819 54.1955 149.938 54.1955 150.134C54.1955 150.33 54.3941 150.449 54.7216 150.449C55.011 150.449 55.2478 150.544 55.2478 150.659C55.2478 150.775 55.4845 150.869 55.7739 150.869C56.0633 150.869 56.3001 150.962 56.3001 151.075C56.3001 151.188 56.5368 151.34 56.8262 151.413C57.1156 151.485 57.3524 151.629 57.3524 151.732C57.3524 151.835 57.6737 151.919 58.0665 151.919C58.5072 151.919 58.8269 152.039 58.9018 152.234C58.9683 152.407 59.2152 152.549 59.4505 152.549C59.6855 152.549 59.8779 152.643 59.8779 152.759C59.8779 152.874 60.1147 152.969 60.4041 152.969C60.6934 152.969 60.9302 153.063 60.9302 153.179C60.9302 153.294 61.1602 153.389 61.4414 153.389C61.7224 153.389 62.0945 153.53 62.2681 153.704C62.4417 153.877 62.7799 154.019 63.0199 154.019C63.2596 154.019 63.4557 154.113 63.4557 154.228C63.4557 154.344 63.7691 154.438 64.1522 154.438C64.5352 154.438 65.0323 154.577 65.2571 154.747C65.4816 154.916 65.8786 155.058 66.1391 155.062C66.3997 155.065 66.6127 155.163 66.6127 155.278C66.6127 155.394 67.0388 155.488 67.5597 155.488C68.0806 155.488 68.5068 155.579 68.5068 155.689C68.5068 155.799 68.8393 155.951 69.2457 156.027C69.6521 156.103 70.0366 156.25 70.1 156.352C70.1633 156.454 70.6358 156.538 71.15 156.538C71.6641 156.538 72.0846 156.628 72.0846 156.738C72.0846 156.847 72.655 157.001 73.352 157.08C74.0493 157.159 74.6704 157.305 74.7324 157.406C74.7947 157.506 75.3133 157.588 75.8853 157.588C76.4574 157.588 76.9252 157.682 76.9252 157.798C76.9252 157.913 77.2805 158.011 77.7145 158.015C78.1486 158.019 79.1193 158.158 79.8717 158.323C80.6241 158.488 81.9738 158.626 82.8708 158.63C83.813 158.635 84.5018 158.726 84.5018 158.848C84.5018 159.205 90.3623 159.12 90.7254 158.758C91.1356 158.348 91.1705 150.971 90.763 150.781C90.5526 150.684 90.5526 150.634 90.763 150.537C91.1494 150.357 91.1494 88.6013 90.763 88.4214C90.5526 88.3235 90.5526 88.2744 90.763 88.1765C91.0954 88.0218 91.1467 81.37 90.8157 81.37C90.6999 81.37 90.6052 81.1338 90.6052 80.8451C90.6052 80.5564 90.6883 80.3202 90.79 80.3202C90.8916 80.3202 91.0141 78.5729 91.0623 76.4371C91.1221 73.7919 91.2309 72.4731 91.4037 72.3007C91.5434 72.1613 91.6575 71.5001 91.6575 70.8297C91.6575 70.1599 91.7392 69.6119 91.8391 69.6119C91.9391 69.6119 92.0708 68.9889 92.1321 68.2278C92.1933 67.4665 92.3484 66.7389 92.4766 66.6111C92.6229 66.4652 92.7098 65.3769 92.7098 63.6909C92.7098 62.0391 92.7908 61.0033 92.9203 61.0033C93.2223 61.0033 93.1804 60.4316 92.8676 60.2858C92.6572 60.188 92.6572 60.1389 92.8676 60.041C93.1962 59.8879 93.2471 55.3342 92.9203 55.3342C92.6153 55.3342 92.6612 54.3419 92.9729 54.1968C93.1833 54.099 93.1833 54.0498 92.9729 53.952C92.8283 53.8846 92.7098 53.5617 92.7098 53.2345C92.7098 52.9074 92.8283 52.592 92.9729 52.5337C93.1833 52.449 93.1833 52.4245 92.9729 52.4112C92.6629 52.3917 92.6117 51.7648 92.9203 51.7648C93.2252 51.7648 93.1793 50.7725 92.8676 50.6274C92.6572 50.5295 92.6572 50.4804 92.8676 50.3825C93.0124 50.3151 93.1307 50.1339 93.1307 49.98C93.1307 49.8261 93.0124 49.6449 92.8676 49.5775C92.6572 49.4797 92.6572 49.4306 92.8676 49.3327C93.2048 49.1757 93.2517 40.5017 92.9163 40.3902C92.7826 40.3457 92.698 39.024 92.6919 36.8897C92.6866 35.0035 92.6309 33.327 92.5684 33.164C92.4307 32.8062 88.0797 32.7227 88.0797 33.0777ZM105.18 36.3314C104.983 36.5537 104.917 38.043 104.917 42.2025V47.7754H105.443C105.732 47.7754 105.969 47.8699 105.969 47.9854C105.969 48.1008 106.293 48.1953 106.688 48.1953C107.083 48.1953 107.438 48.2835 107.477 48.3914C107.647 48.867 111.224 48.9117 111.661 48.4437C112.108 47.965 112.277 45.4658 111.862 45.4658C111.746 45.4658 111.651 45.1823 111.651 44.8359C111.651 44.4894 111.746 44.206 111.862 44.206C111.977 44.206 112.072 43.9225 112.072 43.5761C112.072 43.2296 111.977 42.9462 111.862 42.9462C111.746 42.9462 111.651 42.7572 111.651 42.5262C111.651 42.2953 111.746 42.1063 111.862 42.1063C112.284 42.1063 112.127 37.4881 111.704 37.4803C111.501 37.4767 111.152 37.335 110.927 37.1654C110.702 36.9959 110.205 36.8571 109.822 36.8571C109.439 36.8571 109.126 36.7626 109.126 36.6472C109.126 36.5317 108.747 36.4372 108.284 36.4372C107.821 36.4372 107.442 36.3427 107.442 36.2272C107.442 35.8999 105.481 35.99 105.18 36.3314ZM123.191 40.8839C122.987 41.2425 122.897 42.7878 122.849 46.7256L122.783 52.0797L123.691 52.4472C124.191 52.6493 125.001 52.8146 125.491 52.8146C125.982 52.8146 126.384 52.8982 126.384 53.0002C126.384 53.2387 128.973 53.5192 129.534 53.3414C129.949 53.2102 129.961 53.0477 129.961 47.7334C129.961 41.5186 129.95 41.4764 128.245 41.4764C127.8 41.4764 127.436 41.3819 127.436 41.2664C127.436 41.1509 127.207 41.0565 126.927 41.0565C126.647 41.0565 126.387 40.9744 126.348 40.8738C126.156 40.3739 123.476 40.3825 123.191 40.8839ZM81.3449 65.8325C81.3449 65.948 81.4464 66.0425 81.5703 66.0425C81.8536 66.0425 82.3972 66.5735 82.3972 66.8498C82.3972 66.964 82.5083 67.0942 82.6439 67.1394C82.7849 67.1862 82.9301 67.8018 82.9825 68.5741C83.033 69.3182 83.1589 70.0167 83.262 70.1263C83.3651 70.2362 83.4495 71.3462 83.4495 72.5934C83.4495 73.9652 83.5327 74.8611 83.66 74.8611C83.7827 74.8611 83.8704 75.5609 83.8704 76.5408C83.8704 77.5207 83.7827 78.2205 83.66 78.2205C83.5442 78.2205 83.4495 78.3623 83.4495 78.5355C83.4495 78.8009 82.9728 78.8504 80.4216 78.8504H77.3939L77.2742 78.273C76.8324 76.1415 76.7386 75.4385 76.7274 74.1787C76.7202 73.3821 76.6226 72.7614 76.5043 72.7614C76.3757 72.7614 76.2939 71.7783 76.2939 70.2324C76.2939 67.6708 76.639 66.6724 77.5246 66.6724C77.6332 66.6724 77.7765 66.5307 77.8433 66.3574C77.9338 66.1221 78.3111 66.0425 79.339 66.0425C80.115 66.0425 80.7135 65.9512 80.7135 65.8325C80.7135 65.717 80.8556 65.6226 81.0292 65.6226C81.2029 65.6226 81.3449 65.717 81.3449 65.8325ZM68.1665 67.9826C68.3231 68.1388 68.5175 68.475 68.5983 68.7294C68.6794 68.9837 68.8339 69.192 68.9418 69.192C69.0498 69.192 69.1382 69.6172 69.1382 70.1368C69.1382 70.6565 69.2262 71.0817 69.3337 71.0817C69.4412 71.0817 69.5734 71.9085 69.6273 72.9189C69.6814 73.9295 69.8441 75.7618 69.9891 76.9912C70.3155 79.7613 70.27 79.9003 69.0395 79.9003C68.515 79.9003 68.0859 79.9948 68.0859 80.1103C68.0859 80.4418 64.7446 80.3763 64.4056 80.038C64.25 79.8829 64.0566 79.3159 63.9758 78.7782C63.895 78.2405 63.7449 77.8006 63.6422 77.8006C63.5397 77.8006 63.4557 76.7613 63.4557 75.491C63.4557 74.0911 63.3728 73.1813 63.2453 73.1813C63.1236 73.1813 63.0348 72.5164 63.0348 71.6066C63.0348 70.6968 63.1236 70.0319 63.2453 70.0319C63.361 70.0319 63.4557 69.7417 63.4557 69.387C63.4557 68.8035 63.8472 68.1422 64.1924 68.1422C64.2669 68.1422 64.4819 67.9882 64.6703 67.8003C65.0879 67.3838 67.7028 67.52 68.1665 67.9826ZM54.4059 69.402C54.4059 69.5174 54.5554 69.6119 54.7378 69.6119C55.7346 69.6119 56.3001 70.7462 56.3001 72.7452C56.3001 73.8759 56.3857 74.6511 56.5105 74.6511C56.6263 74.6511 56.721 75.116 56.721 75.6839C56.721 76.2521 56.869 77.2929 57.0497 77.9971C57.4787 79.6676 57.3909 80.5722 56.7736 80.8424C56.5131 80.9564 56.3001 81.1219 56.3001 81.2098C56.3001 81.298 55.4022 81.37 54.3047 81.37H52.3093L52.1856 80.7926C52.1174 80.4752 51.9736 79.9981 51.8659 79.7329C51.7581 79.4678 51.6699 79.0268 51.6699 78.753C51.6699 78.4794 51.5746 78.2239 51.4582 78.1851C51.141 78.0797 51.108 71.4435 51.4243 71.3383C51.5594 71.2933 51.6699 71.1228 51.6699 70.9593C51.6699 70.7955 51.7627 70.6618 51.8764 70.6618C51.9898 70.6618 52.1422 70.4255 52.2148 70.1368C52.3232 69.706 52.4749 69.6119 53.0607 69.6119C53.4534 69.6119 53.7745 69.5174 53.7745 69.402C53.7745 69.2865 53.9166 69.192 54.0902 69.192C54.2639 69.192 54.4059 69.2865 54.4059 69.402ZM70.6114 89.8737C70.6114 90.0469 70.7042 90.1887 70.8179 90.1887C70.9313 90.1887 71.0837 90.4249 71.1563 90.7136C71.2289 91.0023 71.3729 91.2385 71.476 91.2385C71.5793 91.2385 71.6637 92.9854 71.6637 95.1206C71.6637 99.6859 71.6048 99.8471 69.9333 99.8471C69.2779 99.8471 68.9218 99.9384 68.9111 100.11C68.8978 100.32 68.8732 100.32 68.7884 100.11C68.7299 99.9653 68.4567 99.8471 68.181 99.8471C67.3509 99.8471 67.1984 99.2327 67.3289 96.4177C67.5016 92.6891 67.6755 91.0285 67.8933 91.0285C67.9992 91.0285 68.0859 90.8784 68.0859 90.6947C68.0859 90.1467 68.9677 89.5732 69.8222 89.5657C70.3864 89.5606 70.6114 89.6484 70.6114 89.8737ZM82.8181 93.3381C82.8181 93.4536 82.7234 93.5481 82.6077 93.5481C82.4919 93.5481 82.3972 93.4536 82.3972 93.3381C82.3972 93.2227 82.4919 93.1282 82.6077 93.1282C82.7234 93.1282 82.8181 93.2227 82.8181 93.3381ZM70.3107 114.425C70.4761 114.59 70.6114 114.92 70.6114 115.16C70.6114 115.399 70.6973 115.595 70.8021 115.595C70.9071 115.595 71.058 116.067 71.1376 116.644C71.2171 117.222 71.368 117.694 71.473 117.694C71.5778 117.694 71.6637 118.97 71.6637 120.529C71.6637 122.137 71.5791 123.363 71.468 123.363C71.3602 123.363 71.2417 123.576 71.2049 123.836C71.135 124.326 69.3451 124.616 68.1821 124.325C67.5294 124.161 67.139 122.363 67.3257 120.381C67.4052 119.538 67.5275 118.117 67.5976 117.222C67.6677 116.327 67.8062 115.595 67.9055 115.595C68.0046 115.595 68.0859 115.402 68.0859 115.166C68.0859 114.225 69.6039 113.72 70.3107 114.425Z" fill="#00FF00"/>
</svg>
